<mxfile host="app.diagrams.net" modified="2023-07-24T09:47:33.100Z" agent="Mozilla/5.0 (Windows NT 10.0; Win64; x64) AppleWebKit/537.36 (KHTML, like Gecko) Chrome/114.0.0.0 Safari/537.36" etag="Sln8ZcuPhfrkoKUPmflO" version="21.6.5" type="device">
  <diagram name="Page-1" id="o37-ouUlUktZmACFw2VS">
    <mxGraphModel dx="1509" dy="778" grid="1" gridSize="10" guides="1" tooltips="1" connect="1" arrows="1" fold="1" page="1" pageScale="1" pageWidth="1100" pageHeight="850" background="none" math="0" shadow="1">
      <root>
        <mxCell id="0" />
        <mxCell id="1" parent="0" />
        <mxCell id="yoGSxvYXmqT5_oQUQnS2-4" value="" style="edgeStyle=orthogonalEdgeStyle;rounded=0;orthogonalLoop=1;jettySize=auto;html=1;" parent="1" source="yoGSxvYXmqT5_oQUQnS2-2" target="yoGSxvYXmqT5_oQUQnS2-3" edge="1">
          <mxGeometry relative="1" as="geometry" />
        </mxCell>
        <mxCell id="yoGSxvYXmqT5_oQUQnS2-2" value="&lt;font style=&quot;font-size: 20px;&quot;&gt;Start&lt;/font&gt;" style="ellipse;whiteSpace=wrap;html=1;" parent="1" vertex="1">
          <mxGeometry x="260" width="150" height="70" as="geometry" />
        </mxCell>
        <mxCell id="yoGSxvYXmqT5_oQUQnS2-23" value="" style="edgeStyle=orthogonalEdgeStyle;rounded=0;orthogonalLoop=1;jettySize=auto;html=1;" parent="1" source="yoGSxvYXmqT5_oQUQnS2-3" target="yoGSxvYXmqT5_oQUQnS2-6" edge="1">
          <mxGeometry relative="1" as="geometry" />
        </mxCell>
        <mxCell id="yoGSxvYXmqT5_oQUQnS2-3" value="&lt;font style=&quot;font-size: 16px;&quot;&gt;Input Customer Detail.&lt;/font&gt;" style="rounded=1;whiteSpace=wrap;html=1;fillColor=#d5e8d4;strokeColor=#82b366;" parent="1" vertex="1">
          <mxGeometry x="195" y="100" width="280" height="60" as="geometry" />
        </mxCell>
        <mxCell id="yoGSxvYXmqT5_oQUQnS2-25" value="" style="edgeStyle=orthogonalEdgeStyle;rounded=0;orthogonalLoop=1;jettySize=auto;html=1;" parent="1" source="yoGSxvYXmqT5_oQUQnS2-5" target="yoGSxvYXmqT5_oQUQnS2-8" edge="1">
          <mxGeometry relative="1" as="geometry" />
        </mxCell>
        <mxCell id="yoGSxvYXmqT5_oQUQnS2-5" value="&lt;font style=&quot;font-size: 16px;&quot;&gt;Login to account&lt;/font&gt;" style="rounded=1;whiteSpace=wrap;html=1;fillColor=#dae8fc;strokeColor=#6c8ebf;" parent="1" vertex="1">
          <mxGeometry x="190" y="330" width="290" height="60" as="geometry" />
        </mxCell>
        <mxCell id="yoGSxvYXmqT5_oQUQnS2-24" value="" style="edgeStyle=orthogonalEdgeStyle;rounded=0;orthogonalLoop=1;jettySize=auto;html=1;" parent="1" source="yoGSxvYXmqT5_oQUQnS2-6" target="yoGSxvYXmqT5_oQUQnS2-5" edge="1">
          <mxGeometry relative="1" as="geometry" />
        </mxCell>
        <mxCell id="yoGSxvYXmqT5_oQUQnS2-26" value="" style="edgeStyle=orthogonalEdgeStyle;rounded=0;orthogonalLoop=1;jettySize=auto;html=1;" parent="1" source="yoGSxvYXmqT5_oQUQnS2-6" target="yoGSxvYXmqT5_oQUQnS2-7" edge="1">
          <mxGeometry relative="1" as="geometry" />
        </mxCell>
        <mxCell id="yoGSxvYXmqT5_oQUQnS2-6" value="&lt;font style=&quot;font-size: 16px;&quot;&gt;Validate Customer Details.&lt;/font&gt;" style="rhombus;whiteSpace=wrap;html=1;fillColor=#f8cecc;strokeColor=#b85450;" parent="1" vertex="1">
          <mxGeometry x="215" y="190" width="240" height="110" as="geometry" />
        </mxCell>
        <mxCell id="yoGSxvYXmqT5_oQUQnS2-27" style="edgeStyle=orthogonalEdgeStyle;rounded=0;orthogonalLoop=1;jettySize=auto;html=1;entryX=1;entryY=0.5;entryDx=0;entryDy=0;" parent="1" source="yoGSxvYXmqT5_oQUQnS2-7" target="yoGSxvYXmqT5_oQUQnS2-3" edge="1">
          <mxGeometry relative="1" as="geometry">
            <Array as="points">
              <mxPoint x="630" y="130" />
            </Array>
          </mxGeometry>
        </mxCell>
        <mxCell id="yoGSxvYXmqT5_oQUQnS2-7" value="&lt;font style=&quot;font-size: 16px;&quot;&gt;Signup as new member&lt;/font&gt;" style="rounded=1;whiteSpace=wrap;html=1;fillColor=#dae8fc;strokeColor=#6c8ebf;" parent="1" vertex="1">
          <mxGeometry x="540" y="215" width="180" height="60" as="geometry" />
        </mxCell>
        <mxCell id="M4klrshnVqQrMJAqlIwn-60" value="" style="edgeStyle=orthogonalEdgeStyle;rounded=0;orthogonalLoop=1;jettySize=auto;html=1;" edge="1" parent="1" source="yoGSxvYXmqT5_oQUQnS2-8" target="M4klrshnVqQrMJAqlIwn-58">
          <mxGeometry relative="1" as="geometry" />
        </mxCell>
        <mxCell id="yoGSxvYXmqT5_oQUQnS2-8" value="&lt;font style=&quot;font-size: 16px;&quot;&gt;Browse Product.&lt;/font&gt;" style="rounded=1;whiteSpace=wrap;html=1;fillColor=#dae8fc;strokeColor=#6c8ebf;" parent="1" vertex="1">
          <mxGeometry x="190" y="420" width="290" height="60" as="geometry" />
        </mxCell>
        <mxCell id="yoGSxvYXmqT5_oQUQnS2-29" value="" style="edgeStyle=orthogonalEdgeStyle;rounded=0;orthogonalLoop=1;jettySize=auto;html=1;" parent="1" target="yoGSxvYXmqT5_oQUQnS2-10" edge="1">
          <mxGeometry relative="1" as="geometry">
            <mxPoint x="335" y="579.9999999999998" as="sourcePoint" />
          </mxGeometry>
        </mxCell>
        <mxCell id="yoGSxvYXmqT5_oQUQnS2-30" value="" style="edgeStyle=orthogonalEdgeStyle;rounded=0;orthogonalLoop=1;jettySize=auto;html=1;" parent="1" source="yoGSxvYXmqT5_oQUQnS2-10" target="yoGSxvYXmqT5_oQUQnS2-11" edge="1">
          <mxGeometry relative="1" as="geometry" />
        </mxCell>
        <mxCell id="yoGSxvYXmqT5_oQUQnS2-32" value="" style="edgeStyle=orthogonalEdgeStyle;rounded=0;orthogonalLoop=1;jettySize=auto;html=1;" parent="1" source="yoGSxvYXmqT5_oQUQnS2-10" target="yoGSxvYXmqT5_oQUQnS2-12" edge="1">
          <mxGeometry relative="1" as="geometry" />
        </mxCell>
        <mxCell id="yoGSxvYXmqT5_oQUQnS2-10" value="&lt;font style=&quot;font-size: 16px;&quot;&gt;Add the product to cart&lt;/font&gt;" style="rhombus;whiteSpace=wrap;html=1;fillColor=#f8cecc;strokeColor=#b85450;" parent="1" vertex="1">
          <mxGeometry x="195" y="610" width="280" height="150" as="geometry" />
        </mxCell>
        <mxCell id="M4klrshnVqQrMJAqlIwn-69" style="edgeStyle=orthogonalEdgeStyle;rounded=0;orthogonalLoop=1;jettySize=auto;html=1;entryX=1;entryY=0.5;entryDx=0;entryDy=0;" edge="1" parent="1" source="yoGSxvYXmqT5_oQUQnS2-11" target="M4klrshnVqQrMJAqlIwn-58">
          <mxGeometry relative="1" as="geometry">
            <Array as="points">
              <mxPoint x="670" y="555" />
            </Array>
          </mxGeometry>
        </mxCell>
        <mxCell id="yoGSxvYXmqT5_oQUQnS2-11" value="&lt;font style=&quot;font-size: 16px;&quot;&gt;Product Not Available ,Shop Again.&lt;/font&gt;" style="rounded=1;whiteSpace=wrap;html=1;fillColor=#dae8fc;strokeColor=#6c8ebf;" parent="1" vertex="1">
          <mxGeometry x="570" y="655" width="240" height="60" as="geometry" />
        </mxCell>
        <mxCell id="yoGSxvYXmqT5_oQUQnS2-34" value="" style="edgeStyle=orthogonalEdgeStyle;rounded=0;orthogonalLoop=1;jettySize=auto;html=1;" parent="1" source="yoGSxvYXmqT5_oQUQnS2-12" target="yoGSxvYXmqT5_oQUQnS2-13" edge="1">
          <mxGeometry relative="1" as="geometry" />
        </mxCell>
        <mxCell id="yoGSxvYXmqT5_oQUQnS2-12" value="&lt;font style=&quot;font-size: 16px;&quot;&gt;View Cart&lt;/font&gt;" style="rounded=1;whiteSpace=wrap;html=1;fillColor=#dae8fc;strokeColor=#6c8ebf;" parent="1" vertex="1">
          <mxGeometry x="275" y="780" width="120" height="60" as="geometry" />
        </mxCell>
        <mxCell id="yoGSxvYXmqT5_oQUQnS2-36" value="" style="edgeStyle=orthogonalEdgeStyle;rounded=0;orthogonalLoop=1;jettySize=auto;html=1;" parent="1" source="yoGSxvYXmqT5_oQUQnS2-13" target="yoGSxvYXmqT5_oQUQnS2-14" edge="1">
          <mxGeometry relative="1" as="geometry" />
        </mxCell>
        <mxCell id="yoGSxvYXmqT5_oQUQnS2-13" value="&lt;font style=&quot;font-size: 16px;&quot;&gt;Apply Discount if available.&amp;nbsp;&lt;/font&gt;" style="rhombus;whiteSpace=wrap;html=1;fillColor=#f8cecc;strokeColor=#b85450;" parent="1" vertex="1">
          <mxGeometry x="212.5" y="870" width="245" height="140" as="geometry" />
        </mxCell>
        <mxCell id="yoGSxvYXmqT5_oQUQnS2-37" value="" style="edgeStyle=orthogonalEdgeStyle;rounded=0;orthogonalLoop=1;jettySize=auto;html=1;" parent="1" source="yoGSxvYXmqT5_oQUQnS2-14" target="yoGSxvYXmqT5_oQUQnS2-15" edge="1">
          <mxGeometry relative="1" as="geometry" />
        </mxCell>
        <mxCell id="yoGSxvYXmqT5_oQUQnS2-14" value="&lt;font style=&quot;font-size: 16px;&quot;&gt;Checkout&lt;/font&gt;" style="rounded=1;whiteSpace=wrap;html=1;fillColor=#dae8fc;strokeColor=#6c8ebf;" parent="1" vertex="1">
          <mxGeometry x="205" y="1040" width="260" height="60" as="geometry" />
        </mxCell>
        <mxCell id="yoGSxvYXmqT5_oQUQnS2-38" value="" style="edgeStyle=orthogonalEdgeStyle;rounded=0;orthogonalLoop=1;jettySize=auto;html=1;" parent="1" source="yoGSxvYXmqT5_oQUQnS2-15" target="yoGSxvYXmqT5_oQUQnS2-16" edge="1">
          <mxGeometry relative="1" as="geometry" />
        </mxCell>
        <mxCell id="yoGSxvYXmqT5_oQUQnS2-15" value="&lt;font style=&quot;font-size: 16px;&quot;&gt;Payment Method&lt;/font&gt;" style="rounded=1;whiteSpace=wrap;html=1;fillColor=#dae8fc;strokeColor=#6c8ebf;" parent="1" vertex="1">
          <mxGeometry x="210" y="1130" width="250" height="60" as="geometry" />
        </mxCell>
        <mxCell id="yoGSxvYXmqT5_oQUQnS2-39" value="" style="edgeStyle=orthogonalEdgeStyle;rounded=0;orthogonalLoop=1;jettySize=auto;html=1;" parent="1" source="yoGSxvYXmqT5_oQUQnS2-16" target="yoGSxvYXmqT5_oQUQnS2-17" edge="1">
          <mxGeometry relative="1" as="geometry" />
        </mxCell>
        <mxCell id="yoGSxvYXmqT5_oQUQnS2-16" value="&lt;font style=&quot;font-size: 16px;&quot;&gt;Add details&lt;/font&gt;" style="rounded=1;whiteSpace=wrap;html=1;fillColor=#dae8fc;strokeColor=#6c8ebf;" parent="1" vertex="1">
          <mxGeometry x="210" y="1220" width="250" height="60" as="geometry" />
        </mxCell>
        <mxCell id="yoGSxvYXmqT5_oQUQnS2-40" value="" style="edgeStyle=orthogonalEdgeStyle;rounded=0;orthogonalLoop=1;jettySize=auto;html=1;" parent="1" source="yoGSxvYXmqT5_oQUQnS2-17" target="yoGSxvYXmqT5_oQUQnS2-18" edge="1">
          <mxGeometry relative="1" as="geometry" />
        </mxCell>
        <mxCell id="yoGSxvYXmqT5_oQUQnS2-44" value="" style="edgeStyle=orthogonalEdgeStyle;rounded=0;orthogonalLoop=1;jettySize=auto;html=1;" parent="1" source="yoGSxvYXmqT5_oQUQnS2-17" target="yoGSxvYXmqT5_oQUQnS2-19" edge="1">
          <mxGeometry relative="1" as="geometry" />
        </mxCell>
        <mxCell id="yoGSxvYXmqT5_oQUQnS2-17" value="&lt;font style=&quot;font-size: 16px;&quot;&gt;Validate details&lt;/font&gt;" style="rhombus;whiteSpace=wrap;html=1;fillColor=#f8cecc;strokeColor=#b85450;" parent="1" vertex="1">
          <mxGeometry x="255" y="1300" width="160" height="110" as="geometry" />
        </mxCell>
        <mxCell id="yoGSxvYXmqT5_oQUQnS2-43" style="edgeStyle=orthogonalEdgeStyle;rounded=0;orthogonalLoop=1;jettySize=auto;html=1;entryX=1;entryY=0.25;entryDx=0;entryDy=0;" parent="1" source="yoGSxvYXmqT5_oQUQnS2-18" target="yoGSxvYXmqT5_oQUQnS2-16" edge="1">
          <mxGeometry relative="1" as="geometry">
            <Array as="points">
              <mxPoint x="555" y="1235" />
            </Array>
          </mxGeometry>
        </mxCell>
        <mxCell id="yoGSxvYXmqT5_oQUQnS2-18" value="&lt;font style=&quot;font-size: 16px;&quot;&gt;Payment Failed&lt;/font&gt;" style="rounded=1;whiteSpace=wrap;html=1;fillColor=#dae8fc;strokeColor=#6c8ebf;" parent="1" vertex="1">
          <mxGeometry x="480" y="1325" width="150" height="60" as="geometry" />
        </mxCell>
        <mxCell id="yoGSxvYXmqT5_oQUQnS2-45" value="" style="edgeStyle=orthogonalEdgeStyle;rounded=0;orthogonalLoop=1;jettySize=auto;html=1;" parent="1" source="yoGSxvYXmqT5_oQUQnS2-19" target="yoGSxvYXmqT5_oQUQnS2-20" edge="1">
          <mxGeometry relative="1" as="geometry" />
        </mxCell>
        <mxCell id="yoGSxvYXmqT5_oQUQnS2-19" value="&lt;font style=&quot;font-size: 16px;&quot;&gt;Order Confirmed&lt;/font&gt;" style="rounded=1;whiteSpace=wrap;html=1;fillColor=#dae8fc;strokeColor=#6c8ebf;" parent="1" vertex="1">
          <mxGeometry x="255" y="1440" width="160" height="60" as="geometry" />
        </mxCell>
        <mxCell id="yoGSxvYXmqT5_oQUQnS2-20" value="&lt;font style=&quot;font-size: 16px;&quot;&gt;END&lt;/font&gt;" style="ellipse;whiteSpace=wrap;html=1;" parent="1" vertex="1">
          <mxGeometry x="275" y="1550" width="120" height="80" as="geometry" />
        </mxCell>
        <mxCell id="M4klrshnVqQrMJAqlIwn-2" value="Yes" style="text;html=1;strokeColor=none;fillColor=none;align=center;verticalAlign=middle;whiteSpace=wrap;rounded=0;" vertex="1" parent="1">
          <mxGeometry x="335" y="1000" width="60" height="30" as="geometry" />
        </mxCell>
        <mxCell id="M4klrshnVqQrMJAqlIwn-3" value="Yes" style="text;html=1;strokeColor=none;fillColor=none;align=center;verticalAlign=middle;whiteSpace=wrap;rounded=0;" vertex="1" parent="1">
          <mxGeometry x="335" y="840" width="60" height="30" as="geometry" />
        </mxCell>
        <mxCell id="M4klrshnVqQrMJAqlIwn-4" value="Yes" style="text;html=1;strokeColor=none;fillColor=none;align=center;verticalAlign=middle;whiteSpace=wrap;rounded=0;" vertex="1" parent="1">
          <mxGeometry x="335" y="750" width="60" height="30" as="geometry" />
        </mxCell>
        <mxCell id="M4klrshnVqQrMJAqlIwn-5" value="Yes" style="text;html=1;strokeColor=none;fillColor=none;align=center;verticalAlign=middle;whiteSpace=wrap;rounded=0;" vertex="1" parent="1">
          <mxGeometry x="335" y="580" width="60" height="30" as="geometry" />
        </mxCell>
        <mxCell id="M4klrshnVqQrMJAqlIwn-6" value="Yes" style="text;html=1;strokeColor=none;fillColor=none;align=center;verticalAlign=middle;whiteSpace=wrap;rounded=0;" vertex="1" parent="1">
          <mxGeometry x="380" y="480" width="60" height="30" as="geometry" />
        </mxCell>
        <mxCell id="M4klrshnVqQrMJAqlIwn-7" value="Yes" style="text;html=1;strokeColor=none;fillColor=none;align=center;verticalAlign=middle;whiteSpace=wrap;rounded=0;" vertex="1" parent="1">
          <mxGeometry x="335" y="390" width="60" height="30" as="geometry" />
        </mxCell>
        <mxCell id="M4klrshnVqQrMJAqlIwn-8" value="Yes" style="text;html=1;strokeColor=none;fillColor=none;align=center;verticalAlign=middle;whiteSpace=wrap;rounded=0;" vertex="1" parent="1">
          <mxGeometry x="335" y="300" width="60" height="30" as="geometry" />
        </mxCell>
        <mxCell id="M4klrshnVqQrMJAqlIwn-9" value="Yes" style="text;html=1;strokeColor=none;fillColor=none;align=center;verticalAlign=middle;whiteSpace=wrap;rounded=0;" vertex="1" parent="1">
          <mxGeometry x="335" y="165" width="60" height="30" as="geometry" />
        </mxCell>
        <mxCell id="M4klrshnVqQrMJAqlIwn-10" value="Yes" style="text;html=1;strokeColor=none;fillColor=none;align=center;verticalAlign=middle;whiteSpace=wrap;rounded=0;" vertex="1" parent="1">
          <mxGeometry x="335" y="70" width="60" height="30" as="geometry" />
        </mxCell>
        <mxCell id="M4klrshnVqQrMJAqlIwn-11" value="Yes" style="text;html=1;strokeColor=none;fillColor=none;align=center;verticalAlign=middle;whiteSpace=wrap;rounded=0;" vertex="1" parent="1">
          <mxGeometry x="335" y="1100" width="60" height="30" as="geometry" />
        </mxCell>
        <mxCell id="M4klrshnVqQrMJAqlIwn-12" value="Yes" style="text;html=1;strokeColor=none;fillColor=none;align=center;verticalAlign=middle;whiteSpace=wrap;rounded=0;" vertex="1" parent="1">
          <mxGeometry x="335" y="1190" width="60" height="30" as="geometry" />
        </mxCell>
        <mxCell id="M4klrshnVqQrMJAqlIwn-13" value="Yes" style="text;html=1;strokeColor=none;fillColor=none;align=center;verticalAlign=middle;whiteSpace=wrap;rounded=0;" vertex="1" parent="1">
          <mxGeometry x="335" y="1280" width="60" height="30" as="geometry" />
        </mxCell>
        <mxCell id="M4klrshnVqQrMJAqlIwn-14" value="Yes" style="text;html=1;strokeColor=none;fillColor=none;align=center;verticalAlign=middle;whiteSpace=wrap;rounded=0;" vertex="1" parent="1">
          <mxGeometry x="335" y="1500" width="60" height="30" as="geometry" />
        </mxCell>
        <mxCell id="M4klrshnVqQrMJAqlIwn-15" value="Yes" style="text;html=1;strokeColor=none;fillColor=none;align=center;verticalAlign=middle;whiteSpace=wrap;rounded=0;" vertex="1" parent="1">
          <mxGeometry x="335" y="1410" width="60" height="30" as="geometry" />
        </mxCell>
        <mxCell id="M4klrshnVqQrMJAqlIwn-17" value="No" style="text;html=1;strokeColor=none;fillColor=none;align=center;verticalAlign=middle;whiteSpace=wrap;rounded=0;" vertex="1" parent="1">
          <mxGeometry x="490" y="640" width="60" height="30" as="geometry" />
        </mxCell>
        <mxCell id="M4klrshnVqQrMJAqlIwn-18" value="No" style="text;html=1;strokeColor=none;fillColor=none;align=center;verticalAlign=middle;whiteSpace=wrap;rounded=0;" vertex="1" parent="1">
          <mxGeometry x="490" y="215" width="60" height="30" as="geometry" />
        </mxCell>
        <mxCell id="M4klrshnVqQrMJAqlIwn-22" style="edgeStyle=orthogonalEdgeStyle;rounded=0;orthogonalLoop=1;jettySize=auto;html=1;exitX=0;exitY=1;exitDx=0;exitDy=0;entryX=0;entryY=0.5;entryDx=0;entryDy=0;" edge="1" parent="1" source="M4klrshnVqQrMJAqlIwn-19" target="M4klrshnVqQrMJAqlIwn-21">
          <mxGeometry relative="1" as="geometry">
            <Array as="points">
              <mxPoint x="520" y="940" />
              <mxPoint x="520" y="940" />
            </Array>
          </mxGeometry>
        </mxCell>
        <mxCell id="M4klrshnVqQrMJAqlIwn-19" value="No" style="text;html=1;strokeColor=none;fillColor=none;align=center;verticalAlign=middle;whiteSpace=wrap;rounded=0;" vertex="1" parent="1">
          <mxGeometry x="450" y="910" width="60" height="30" as="geometry" />
        </mxCell>
        <mxCell id="M4klrshnVqQrMJAqlIwn-20" value="No" style="text;html=1;strokeColor=none;fillColor=none;align=center;verticalAlign=middle;whiteSpace=wrap;rounded=0;" vertex="1" parent="1">
          <mxGeometry x="430" y="1325" width="60" height="30" as="geometry" />
        </mxCell>
        <mxCell id="M4klrshnVqQrMJAqlIwn-21" value="&lt;font style=&quot;font-size: 16px;&quot;&gt;If Available, Select the item from cart&amp;nbsp;&lt;/font&gt;" style="rounded=1;whiteSpace=wrap;html=1;fillColor=#dae8fc;strokeColor=#6c8ebf;" vertex="1" parent="1">
          <mxGeometry x="560" y="910" width="270" height="60" as="geometry" />
        </mxCell>
        <mxCell id="M4klrshnVqQrMJAqlIwn-23" value="Yes" style="text;html=1;strokeColor=none;fillColor=none;align=center;verticalAlign=middle;whiteSpace=wrap;rounded=0;" vertex="1" parent="1">
          <mxGeometry x="620" y="185" width="60" height="30" as="geometry" />
        </mxCell>
        <mxCell id="M4klrshnVqQrMJAqlIwn-24" value="Yes" style="text;html=1;strokeColor=none;fillColor=none;align=center;verticalAlign=middle;whiteSpace=wrap;rounded=0;" vertex="1" parent="1">
          <mxGeometry x="670" y="625" width="60" height="30" as="geometry" />
        </mxCell>
        <mxCell id="M4klrshnVqQrMJAqlIwn-26" value="&lt;font style=&quot;font-size: 16px;&quot;&gt;8&lt;/font&gt;" style="text;html=1;strokeColor=none;fillColor=none;align=center;verticalAlign=middle;whiteSpace=wrap;rounded=0;" vertex="1" parent="1">
          <mxGeometry x="255" y="580" width="60" height="30" as="geometry" />
        </mxCell>
        <mxCell id="M4klrshnVqQrMJAqlIwn-38" value="&lt;font style=&quot;font-size: 16px;&quot;&gt;7&lt;/font&gt;" style="text;html=1;strokeColor=none;fillColor=none;align=center;verticalAlign=middle;whiteSpace=wrap;rounded=0;" vertex="1" parent="1">
          <mxGeometry x="260" y="490" width="60" height="30" as="geometry" />
        </mxCell>
        <mxCell id="M4klrshnVqQrMJAqlIwn-39" value="&lt;font style=&quot;font-size: 16px;&quot;&gt;6&lt;/font&gt;" style="text;html=1;strokeColor=none;fillColor=none;align=center;verticalAlign=middle;whiteSpace=wrap;rounded=0;" vertex="1" parent="1">
          <mxGeometry x="275" y="390" width="60" height="30" as="geometry" />
        </mxCell>
        <mxCell id="M4klrshnVqQrMJAqlIwn-40" value="&lt;font style=&quot;font-size: 16px;&quot;&gt;5&lt;/font&gt;" style="text;html=1;strokeColor=none;fillColor=none;align=center;verticalAlign=middle;whiteSpace=wrap;rounded=0;" vertex="1" parent="1">
          <mxGeometry x="275" y="300" width="60" height="30" as="geometry" />
        </mxCell>
        <mxCell id="M4klrshnVqQrMJAqlIwn-41" value="&lt;font style=&quot;font-size: 16px;&quot;&gt;4&lt;/font&gt;" style="text;html=1;strokeColor=none;fillColor=none;align=center;verticalAlign=middle;whiteSpace=wrap;rounded=0;" vertex="1" parent="1">
          <mxGeometry x="580" y="185" width="60" height="30" as="geometry" />
        </mxCell>
        <mxCell id="M4klrshnVqQrMJAqlIwn-42" value="&lt;font style=&quot;font-size: 16px;&quot;&gt;3&lt;/font&gt;" style="text;html=1;strokeColor=none;fillColor=none;align=center;verticalAlign=middle;whiteSpace=wrap;rounded=0;" vertex="1" parent="1">
          <mxGeometry x="490" y="245" width="60" height="30" as="geometry" />
        </mxCell>
        <mxCell id="M4klrshnVqQrMJAqlIwn-43" value="&lt;font style=&quot;font-size: 16px;&quot;&gt;2&lt;/font&gt;" style="text;html=1;strokeColor=none;fillColor=none;align=center;verticalAlign=middle;whiteSpace=wrap;rounded=0;" vertex="1" parent="1">
          <mxGeometry x="275" y="160" width="60" height="30" as="geometry" />
        </mxCell>
        <mxCell id="M4klrshnVqQrMJAqlIwn-44" value="&lt;font style=&quot;font-size: 16px;&quot;&gt;1&lt;/font&gt;" style="text;html=1;strokeColor=none;fillColor=none;align=center;verticalAlign=middle;whiteSpace=wrap;rounded=0;" vertex="1" parent="1">
          <mxGeometry x="275" y="70" width="60" height="30" as="geometry" />
        </mxCell>
        <mxCell id="M4klrshnVqQrMJAqlIwn-45" value="&lt;font style=&quot;font-size: 16px;&quot;&gt;10&lt;/font&gt;" style="text;html=1;strokeColor=none;fillColor=none;align=center;verticalAlign=middle;whiteSpace=wrap;rounded=0;" vertex="1" parent="1">
          <mxGeometry x="490" y="690" width="60" height="30" as="geometry" />
        </mxCell>
        <mxCell id="M4klrshnVqQrMJAqlIwn-46" value="&lt;font style=&quot;font-size: 16px;&quot;&gt;9&lt;/font&gt;" style="text;html=1;strokeColor=none;fillColor=none;align=center;verticalAlign=middle;whiteSpace=wrap;rounded=0;" vertex="1" parent="1">
          <mxGeometry x="40" y="595" width="60" height="30" as="geometry" />
        </mxCell>
        <mxCell id="M4klrshnVqQrMJAqlIwn-47" value="&lt;font style=&quot;font-size: 16px;&quot;&gt;12&lt;/font&gt;" style="text;html=1;strokeColor=none;fillColor=none;align=center;verticalAlign=middle;whiteSpace=wrap;rounded=0;" vertex="1" parent="1">
          <mxGeometry x="255" y="750" width="60" height="30" as="geometry" />
        </mxCell>
        <mxCell id="M4klrshnVqQrMJAqlIwn-48" value="&lt;font style=&quot;font-size: 16px;&quot;&gt;11&lt;/font&gt;" style="text;html=1;strokeColor=none;fillColor=none;align=center;verticalAlign=middle;whiteSpace=wrap;rounded=0;" vertex="1" parent="1">
          <mxGeometry x="610" y="625" width="60" height="30" as="geometry" />
        </mxCell>
        <mxCell id="M4klrshnVqQrMJAqlIwn-49" value="&lt;font style=&quot;font-size: 16px;&quot;&gt;13&lt;/font&gt;" style="text;html=1;strokeColor=none;fillColor=none;align=center;verticalAlign=middle;whiteSpace=wrap;rounded=0;" vertex="1" parent="1">
          <mxGeometry x="255" y="860" width="60" height="30" as="geometry" />
        </mxCell>
        <mxCell id="M4klrshnVqQrMJAqlIwn-50" value="&lt;font style=&quot;font-size: 16px;&quot;&gt;15&lt;/font&gt;" style="text;html=1;strokeColor=none;fillColor=none;align=center;verticalAlign=middle;whiteSpace=wrap;rounded=0;" vertex="1" parent="1">
          <mxGeometry x="260" y="1000" width="60" height="30" as="geometry" />
        </mxCell>
        <mxCell id="M4klrshnVqQrMJAqlIwn-51" value="&lt;font style=&quot;font-size: 16px;&quot;&gt;14&lt;/font&gt;" style="text;html=1;strokeColor=none;fillColor=none;align=center;verticalAlign=middle;whiteSpace=wrap;rounded=0;" vertex="1" parent="1">
          <mxGeometry x="490" y="910" width="60" height="30" as="geometry" />
        </mxCell>
        <mxCell id="M4klrshnVqQrMJAqlIwn-52" value="&lt;font style=&quot;font-size: 16px;&quot;&gt;16&lt;/font&gt;" style="text;html=1;strokeColor=none;fillColor=none;align=center;verticalAlign=middle;whiteSpace=wrap;rounded=0;" vertex="1" parent="1">
          <mxGeometry x="260" y="1100" width="60" height="30" as="geometry" />
        </mxCell>
        <mxCell id="M4klrshnVqQrMJAqlIwn-53" value="&lt;font style=&quot;font-size: 16px;&quot;&gt;17&lt;/font&gt;" style="text;html=1;strokeColor=none;fillColor=none;align=center;verticalAlign=middle;whiteSpace=wrap;rounded=0;" vertex="1" parent="1">
          <mxGeometry x="260" y="1190" width="60" height="30" as="geometry" />
        </mxCell>
        <mxCell id="M4klrshnVqQrMJAqlIwn-54" value="&lt;font style=&quot;font-size: 16px;&quot;&gt;18&lt;/font&gt;" style="text;html=1;strokeColor=none;fillColor=none;align=center;verticalAlign=middle;whiteSpace=wrap;rounded=0;" vertex="1" parent="1">
          <mxGeometry x="270" y="1290" width="60" height="30" as="geometry" />
        </mxCell>
        <mxCell id="M4klrshnVqQrMJAqlIwn-55" value="&lt;font style=&quot;font-size: 16px;&quot;&gt;19&lt;/font&gt;" style="text;html=1;strokeColor=none;fillColor=none;align=center;verticalAlign=middle;whiteSpace=wrap;rounded=0;" vertex="1" parent="1">
          <mxGeometry x="425" y="1370" width="60" height="30" as="geometry" />
        </mxCell>
        <mxCell id="M4klrshnVqQrMJAqlIwn-56" value="&lt;font style=&quot;font-size: 16px;&quot;&gt;20&lt;/font&gt;" style="text;html=1;strokeColor=none;fillColor=none;align=center;verticalAlign=middle;whiteSpace=wrap;rounded=0;" vertex="1" parent="1">
          <mxGeometry x="490" y="1290" width="60" height="30" as="geometry" />
        </mxCell>
        <mxCell id="M4klrshnVqQrMJAqlIwn-57" value="&lt;font style=&quot;font-size: 16px;&quot;&gt;21&lt;/font&gt;" style="text;html=1;strokeColor=none;fillColor=none;align=center;verticalAlign=middle;whiteSpace=wrap;rounded=0;" vertex="1" parent="1">
          <mxGeometry x="270" y="1410" width="60" height="30" as="geometry" />
        </mxCell>
        <mxCell id="M4klrshnVqQrMJAqlIwn-68" value="" style="edgeStyle=orthogonalEdgeStyle;rounded=0;orthogonalLoop=1;jettySize=auto;html=1;" edge="1" parent="1" source="M4klrshnVqQrMJAqlIwn-58" target="M4klrshnVqQrMJAqlIwn-61">
          <mxGeometry relative="1" as="geometry" />
        </mxCell>
        <mxCell id="M4klrshnVqQrMJAqlIwn-58" value="&lt;font style=&quot;font-size: 16px;&quot;&gt;Select Shop products.&amp;nbsp;&lt;/font&gt;" style="rhombus;whiteSpace=wrap;html=1;fillColor=#f8cecc;strokeColor=#b85450;" vertex="1" parent="1">
          <mxGeometry x="235.63" y="510" width="198.75" height="90" as="geometry" />
        </mxCell>
        <mxCell id="M4klrshnVqQrMJAqlIwn-64" style="edgeStyle=orthogonalEdgeStyle;rounded=0;orthogonalLoop=1;jettySize=auto;html=1;entryX=0;entryY=0.5;entryDx=0;entryDy=0;" edge="1" parent="1" source="M4klrshnVqQrMJAqlIwn-61" target="yoGSxvYXmqT5_oQUQnS2-14">
          <mxGeometry relative="1" as="geometry">
            <Array as="points">
              <mxPoint x="100" y="1070" />
            </Array>
          </mxGeometry>
        </mxCell>
        <mxCell id="M4klrshnVqQrMJAqlIwn-61" value="&lt;font style=&quot;font-size: 16px;&quot;&gt;Buy Now&lt;/font&gt;" style="rounded=1;whiteSpace=wrap;html=1;fillColor=#dae8fc;strokeColor=#6c8ebf;" vertex="1" parent="1">
          <mxGeometry x="40" y="525" width="120" height="60" as="geometry" />
        </mxCell>
        <mxCell id="M4klrshnVqQrMJAqlIwn-65" value="Yes" style="text;html=1;strokeColor=none;fillColor=none;align=center;verticalAlign=middle;whiteSpace=wrap;rounded=0;" vertex="1" parent="1">
          <mxGeometry x="100" y="595" width="60" height="30" as="geometry" />
        </mxCell>
        <mxCell id="M4klrshnVqQrMJAqlIwn-66" value="Yes" style="text;html=1;strokeColor=none;fillColor=none;align=center;verticalAlign=middle;whiteSpace=wrap;rounded=0;" vertex="1" parent="1">
          <mxGeometry x="550" y="1290" width="60" height="30" as="geometry" />
        </mxCell>
        <mxCell id="M4klrshnVqQrMJAqlIwn-67" value="&lt;font style=&quot;font-size: 16px;&quot;&gt;22&lt;/font&gt;" style="text;html=1;strokeColor=none;fillColor=none;align=center;verticalAlign=middle;whiteSpace=wrap;rounded=0;" vertex="1" parent="1">
          <mxGeometry x="275" y="1510" width="60" height="30" as="geometry" />
        </mxCell>
      </root>
    </mxGraphModel>
  </diagram>
</mxfile>
